<svg xmlns="http://www.w3.org/2000/svg" width="20" height="20"><g fill="none" fill-rule="evenodd"><path d="M-2-2h24v24H-2z"/><path fill="#555" d="M13 5.29V1c0-.55-.45-1-1-1H8c-.55 0-1 .45-1 1v4.29c0 .13.05.26.15.35l2.5 2.5c.2.2.51.2.71 0l2.5-2.5c.09-.09.14-.21.14-.35ZM5.29 7H1c-.55 0-1 .45-1 1v4c0 .55.45 1 1 1h4.29c.13 0 .26-.05.35-.15l2.5-2.5c.2-.2.2-.51 0-.71l-2.5-2.5A.483.483 0 0 0 5.29 7ZM7 14.71V19c0 .55.45 1 1 1h4c.55 0 1-.45 1-1v-4.29a.47.47 0 0 0-.15-.35l-2.5-2.5c-.2-.2-.51-.2-.71 0l-2.5 2.5c-.09.09-.14.21-.14.35Zm7.35-7.56-2.5 2.5c-.2.2-.2.51 0 .71l2.5 2.5c.09.09.22.15.35.15H19c.55 0 1-.45 1-1v-4c0-.55-.45-1-1-1h-4.29a.447.447 0 0 0-.36.14Z"/></g></svg>